<?xml version="1.0" encoding="UTF-8"?>
<svg xmlns="http://www.w3.org/2000/svg" data-name="Capa 2" viewBox="0 0 1392.1 1394">
  <path
    d="M787.1 3a351.2 351.2 0 0 0-387.6 269 37.1 37.1 0 0 1-37.5 29 351.2 351.2 0 0 0-90.6 693 37.1 37.1 0 0 1 28.7 37.4 351.2 351.2 0 0 0 693.4 89.5 37.1 37.1 0 0 1 37.3-29 351.1 351.1 0 0 0 90.4-692.7 37.1 37.1 0 0 1-28.7-37.4A351.2 351.2 0 0 0 787 3Zm151.4 1077.4L363 1005.2a57.5 57.5 0 0 1-49.6-64.5L389 363a57.5 57.5 0 0 1 64.4-49.6l575.6 75.3a57.5 57.5 0 0 1 49.5 64.5l-75.5 577.5a57.5 57.5 0 0 1-64.5 49.6Z"
    data-name="Capa 1" />
</svg>