<?xml version="1.0" encoding="UTF-8"?>
<svg xmlns="http://www.w3.org/2000/svg" data-name="Capa 2" viewBox="0 0 1000.1 999.1">
  <path
    d="M357 135.8a264.4 264.4 0 0 0-231.8 472.5 28 28 0 0 1 11.5 33.6 264.4 264.4 0 0 0 472.1 232.3 28 28 0 0 1 33.7-11.4A264.4 264.4 0 0 0 874 390.2a27.8 27.8 0 0 1-9-9 189.4 189.4 0 0 1-101.9 224.4 20 20 0 0 0-11 23 189.4 189.4 0 0 1-355.4 125.2 20 20 0 0 0-23-11A189.4 189.4 0 0 1 248 387.6a20 20 0 0 0 11-22.8 189.4 189.4 0 0 1 355.3-125.4 20 20 0 0 0 23 11c93-23.4 190 26.8 223.6 118.2-.3-4 .1-8 1.6-12a264.4 264.4 0 0 0-472-232 28 28 0 0 1-33.6 11.3Z"
    data-name="Capa 1" style="fill:#ea7fc9;stroke-width:0" />
</svg>