<?xml version="1.0" encoding="UTF-8"?>
<svg xmlns="http://www.w3.org/2000/svg" data-name="Capa 2" viewBox="0 0 1010.7 1009.7">
  <path
    d="M360.7 137.3a267.2 267.2 0 0 0-234.1 477.4 28.3 28.3 0 0 1 11.6 34 267.2 267.2 0 0 0 477 234.8 28.3 28.3 0 0 1 34.1-11.5 267.2 267.2 0 0 0 234-477.7 28 28 0 0 1-9-9.1 191.4 191.4 0 0 1-103 226.8 20.2 20.2 0 0 0-11.1 23.2A191.4 191.4 0 0 1 401 761.8a20.2 20.2 0 0 0-23.3-11 191.4 191.4 0 0 1-127-359.2 20 20 0 0 0 11-23.1A191.4 191.4 0 0 1 621 241.8a20.2 20.2 0 0 0 23.2 11 191.4 191.4 0 0 1 226 119.6c-.4-4 0-8.1 1.6-12.1a267.2 267.2 0 0 0-477-234.6 28.2 28.2 0 0 1-34 11.6Z"
    data-name="Capa 1" style="fill:#85d6c7;stroke-width:0" />
</svg>