<?xml version="1.0" encoding="UTF-8"?>
<svg xmlns="http://www.w3.org/2000/svg" data-name="Capa 2" viewBox="0 0 1179.2 1180.9">
  <g data-name="Capa 1">
    <path
      d="M1027 572.9a296.3 296.3 0 0 0-415.2-418.6 31.3 31.3 0 0 1-39.8-.2 296.3 296.3 0 0 0-419.1 414.7 31.3 31.3 0 0 1-.3 39.8 296.3 296.3 0 0 0 415.5 418.6c3.9-3.2 8.3-5.2 12.9-6.2a212.2 212.2 0 0 1-200.3-190.2 22.4 22.4 0 0 0-20.3-20 212.2 212.2 0 0 1-2.3-422.4 22.3 22.3 0 0 0 20-20.3 212.2 212.2 0 0 1 422.4-2.8c1.1 10.6 9.5 19 20.2 20a212.2 212.2 0 0 1 2.4 422.2 22.4 22.4 0 0 0-20 20.3A212.2 212.2 0 0 1 596 1021.2c4.3 1.1 8.5 3 12.1 6A296.2 296.2 0 0 0 1027 612.7a31.3 31.3 0 0 1 .2-39.7Z"
      class="cls-1" />
    <path
      d="M886.4 268.3a296.3 296.3 0 0 0-589.6-2.4 31.3 31.3 0 0 1-28.3 28 296.3 296.3 0 0 0-3.1 589.6 31.3 31.3 0 0 1 28 28.4 296.3 296.3 0 0 0 589.8 2.1 31 31 0 0 1 4.6-13.5 212.2 212.2 0 0 1-276 7.2 22.4 22.4 0 0 0-28.6.2 212.2 212.2 0 0 1-300.2-297 22.4 22.4 0 0 0-.2-28.6 212.2 212.2 0 0 1 296.6-300.6 22.4 22.4 0 0 0 28.5-.2A212.2 212.2 0 0 1 908 578.3a22.4 22.4 0 0 0 .2 28.6 212.2 212.2 0 0 1-9.8 283.3 31 31 0 0 1 12.9-4.3 296.2 296.2 0 0 0 3-589.4 31.3 31.3 0 0 1-28-28.3Z"
      class="cls-1" />
  </g>
</svg>