<?xml version="1.0" encoding="UTF-8"?>
<svg xmlns="http://www.w3.org/2000/svg" data-name="Capa 2" viewBox="0 0 961.3 959.5">
  <path
    d="M961.3 283.6A280.8 280.8 0 0 0 789.7 200a29.8 29.8 0 0 1-26.7-27A280.7 280.7 0 0 0 682.7 1.8c-64-.7-128.4 20-180.9 62.9-11 9-27 9-38-.2A280.2 280.2 0 0 0 284 0a280.7 280.7 0 0 0-82 170.9 29.8 29.8 0 0 1-26.9 26.7A280.7 280.7 0 0 0 2.5 279c-.6 63.8 20 127.8 62.6 180.1 9 11.1 8.9 27-.3 38A280.7 280.7 0 0 0 0 675a280.7 280.7 0 0 0 172.1 83.5 29.8 29.8 0 0 1 26.7 27 280 280 0 0 0 81.5 173.2c63.8.3 127.7-20.6 180-63.5 11-9 26.9-9 37.9.1 52 43 116 64.2 179.8 64a280.8 280.8 0 0 0 82-171.7 29.8 29.8 0 0 1 26.9-26.8A281 281 0 0 0 959 679.2a280.8 280.8 0 0 0-62.3-178.5c-8.9-11-8.8-26.9.3-37.8a280.7 280.7 0 0 0 64.3-179.4ZM843 514l-83.8 83-.6 118a46.4 46.4 0 0 1-46.5 46l-118-.7-83.5 82.7a46.2 46.2 0 0 1-65.4-.4l-82.6-83.5-116.4-.6a46.3 46.3 0 0 1-46-46.4l.6-116.5-83.3-84.2a46.2 46.2 0 0 1 .4-65.3l84.2-83.4.6-118.2c.2-25.6 21-46.1 46.4-46l118.3.6 82.9-82a46.2 46.2 0 0 1 65.3.4l82 82.9 117.5.6c25.5.1 46 20.9 46 46.4l-.7 117.6 83 83.8a46.2 46.2 0 0 1-.4 65.3Z"
    data-name="Capa 1" style="fill:#ea7fc9;stroke-width:0" />
</svg>